<svg xmlns="http://www.w3.org/2000/svg" xmlns:xlink="http://www.w3.org/1999/xlink" viewBox="0 0 350 330">
  <g id="firstFrame">
    <animate
      begin="3s"
      to="0"
      dur="300ms"
      attributeType="CSS"
      attributeName="opacity"
      fill="freeze"
    />
    <g>
      <animateTransform
        attributeName="transform"
        type="translate"
        values="0 0; 0 2; 0 0; 0 -1.5; 0 0"
        dur="2s"
        calcMode="paced"
        repeatCount="indefinite"
      />

      <path d="M123.23,173.34h9.16a3.29,3.29,0,0,1,3.29,3.3v5.71a3.29,3.29,0,0,1-3.29,3.3H115.57a1.32,1.32,0,0,1-1.32-1.32v-2a9,9,0,0,1,9-9" fill="#068e4d"/>
      <path d="M123.23,173.34h9.16a3.29,3.29,0,0,1,3.29,3.3v5.71a3.29,3.29,0,0,1-3.29,3.3H115.57a1.32,1.32,0,0,1-1.32-1.32v-2A9,9,0,0,1,123.23,173.34Z" fill="none" stroke="#fff" stroke-linecap="round" stroke-linejoin="round" stroke-width="2"/>
      <path d="M123.23,207.39h9.16a3.29,3.29,0,0,0,3.29-3.3v-5.71a3.29,3.29,0,0,0-3.29-3.3H115.57a1.32,1.32,0,0,0-1.32,1.32v2a9,9,0,0,0,9,9" fill="#068e4d"/>
      <path d="M123.23,207.39h9.16a3.29,3.29,0,0,0,3.29-3.3v-5.71a3.29,3.29,0,0,0-3.29-3.3H115.57a1.32,1.32,0,0,0-1.32,1.32v2A9,9,0,0,0,123.23,207.39Z" fill="none" stroke="#fff" stroke-linecap="round" stroke-linejoin="round" stroke-width="2"/>
    </g>
    <g id="body">
      <animateTransform
        attributeName="transform"
        type="translate"
        values="0 0; -34 20; 0 0; 35 20; 0 0"
        dur="2s"
        additive="sum"
        repeatCount="indefinite"
      />
      <animateTransform
        attributeName="transform"
        type="skewX"
        values="0; 10; 0; -10; 0"
        dur="2s"
        additive="sum"
        repeatCount="indefinite"
      />
      <animateTransform
        attributeName="transform"
        type="scale"
        values="1 1; 1 0.9; 1 1; 1 0.9; 1 1"
        dur="2s"
        additive="sum"
        repeatCount="indefinite"
      />
      <path d="M175.44,249.28h48.36a13.27,13.27,0,0,0,13-10.65l3.74-18.32H172.36v25.89A3.09,3.09,0,0,0,175.44,249.28Z" fill="none" stroke="#fff" stroke-linecap="round" stroke-linejoin="round" stroke-width="2"/>
      <path d="M235.79,241.69h-9.22a8.31,8.31,0,0,1-8.28-8.31V220.31" fill="none" stroke="#fff" stroke-linecap="round" stroke-miterlimit="10" stroke-width="2"/>
      <path d="M204.25,231.88h-2.05a3.45,3.45,0,0,0-3.43,3.45v2.92a3.45,3.45,0,0,0,3.43,3.45h2.05a3.45,3.45,0,0,0,3.43-3.45v-2.92A3.44,3.44,0,0,0,204.25,231.88Z" fill="none" stroke="#fff" stroke-linecap="round" stroke-linejoin="round" stroke-width="2">

        <animate
          begin="2s"
          to="0"
          dur="100ms"
          attributeType="CSS"
          attributeName="opacity"
          fill="freeze"
        />
      </path>
      <path d="M185.64,231.88h-2.05a3.45,3.45,0,0,0-3.43,3.45v2.92a3.45,3.45,0,0,0,3.43,3.45h2.05a3.45,3.45,0,0,0,3.43-3.45v-2.92A3.45,3.45,0,0,0,185.64,231.88Z" fill="none" stroke="#fff" stroke-linecap="round" stroke-linejoin="round" stroke-width="2"/>
    </g>
    <path d="M205,227.08c43.38,0,74.86-15.55,74.86-37s-31.48-37-74.86-37c-27.94,0-55.36,13.53-73.46,24.87a14.3,14.3,0,0,0,0,24.21c18.09,11.33,45.52,24.87,73.46,24.87" fill="#068e4d"/>
    <path d="M205,227.08c43.38,0,74.86-15.55,74.86-37s-31.48-37-74.86-37c-27.94,0-55.36,13.53-73.46,24.87a14.3,14.3,0,0,0,0,24.21C149.63,213.54,177.06,227.08,205,227.08Z" fill="none" stroke="#fff" stroke-width="2"/>
    <path d="M 205 183.5 C 176.77 183.5 153.5 186.5 135.5 188.5 C 131.55 189.5 126.19 188.75 126.11 190.43 C 126.028 188.159 126.546 185.908 127.612 183.901 C 128.678 181.894 130.253 180.204 132.18 179 C 148.92 168.5 176.76 154.32 204.99 154.32 C 249.8 154.32 278.63 170.32 278.63 190.07 C 278.63 190.19 278.63 190.31 278.63 190.44 C 268 188 249.53 183.5 205 183.5 Z" fill="#36e69a"/>
    <path d="M132.18,195.12c16.74,4.27,44.58,10,72.81,10,44.14,0,72.75-6.32,73.6-14.18-0.86,19.34-29.45,34.86-73.6,34.86-28.23,0-56.07-14.19-72.81-24.68a12.88,12.88,0,0,1-6-10.18c0.26,1.61,2.26,3.18,6,4.14" fill="#068e4d"/>
    <path fill="#25b774">
      <animate
        attributeName="d"
        values="M 132.013 185.979 C 148.818 181.718 176.766 176 205.105 176 C 249.807 176 278.649 182.417 279 190.35 C 279 190.52 279 190.69 279 190.859 C 278.147 198.703 249.436 205 205.115 205 C 176.776 205 148.828 199.252 132.023 195.021 C 128.219 194.023 126.211 192.496 126 190.899 V 190.39 C 126.131 188.704 128.158 187.037 132.124 186.029; M132.013 185.979C148.5 180.5 176.766 173 205.105 173C249.807 173 278.649 182.417 279 190.35C279 190.52 279 190.69 279 190.859C278.147 198.703 249.426 202.5 205.105 202.5C176.766 202.5 148.828 199.252 132.023 195.021C128.219 194.023 126.211 192.496 126 190.899V190.39C126.131 188.704 128.158 187.037 132.124 186.029 ;M 132.013 185.979 C 148.818 181.718 176.766 176 205.105 176 C 249.807 176 278.649 182.417 279 190.35 C 279 190.52 279 190.69 279 190.859 C 278.147 198.703 249.436 205 205.115 205 C 176.776 205 148.828 199.252 132.023 195.021 C 128.219 194.023 126.211 192.496 126 190.899 V 190.39 C 126.131 188.704 128.158 187.037 132.124 186.029;M 131.895 187.5 C 148.5 184.5 167 180.5 205 180.5 C 249.702 180.5 278 186.5 278.895 190.859 C 278.895 190.69 278.895 191.029 278.895 190.859 C 278.042 198.703 249.321 209.5 205 209.5 C 176.661 209.5 148 201 131.918 195.021 C 128.114 194.023 126.106 192.496 125.895 190.899 V 190.39 C 126.025 188.704 128.04 188.558 132.005 187.55;M 132.013 185.979 C 148.818 181.718 176.766 176 205.105 176 C 249.807 176 278.649 182.417 279 190.35 C 279 190.52 279 190.69 279 190.859 C 278.147 198.703 249.436 205 205.115 205 C 176.776 205 148.828 199.252 132.023 195.021 C 128.219 194.023 126.211 192.496 126 190.899 V 190.39 C 126.131 188.704 128.158 187.037 132.124 186.029"
        dur="2s" repeatCount="indefinite" calcMode="linear" />
    </path>
    <g>
      <animateTransform
        attributeName="transform"
        type="translate"
        values="0 0; 0 -1.5; 0 0; 0 2.5; 0 0"
        dur="2s"
        calcMode="paced"
        repeatCount="indefinite"/>
      <path d="M123.23,173.34h9.16a3.29,3.29,0,0,1,3.29,3.3v5.71a3.29,3.29,0,0,1-3.29,3.3H115.57a1.32,1.32,0,0,1-1.32-1.32v-2a9,9,0,0,1,9-9" fill="#068e4d"/>
      <path d="M123.23,173.34h9.16a3.29,3.29,0,0,1,3.29,3.3v5.71a3.29,3.29,0,0,1-3.29,3.3H115.57a1.32,1.32,0,0,1-1.32-1.32v-2A9,9,0,0,1,123.23,173.34Z" fill="none" stroke="#fff" stroke-linecap="round" stroke-linejoin="round" stroke-width="2"/>
      <path d="M123.23,207.39h9.16a3.29,3.29,0,0,0,3.29-3.3v-5.71a3.29,3.29,0,0,0-3.29-3.3H115.57a1.32,1.32,0,0,0-1.32,1.32v2a9,9,0,0,0,9,9" fill="#068e4d"/>
      <path d="M123.23,207.39h9.16a3.29,3.29,0,0,0,3.29-3.3v-5.71a3.29,3.29,0,0,0-3.29-3.3H115.57a1.32,1.32,0,0,0-1.32,1.32v2A9,9,0,0,0,123.23,207.39Z" fill="none" stroke="#fff" stroke-linecap="round" stroke-linejoin="round" stroke-width="2"/>
    </g>
    <g>
      <animateTransform
        attributeName="transform"
        type="translate"
        values="190 15; -50 15"
        keyTimes="0; 1"
        keySplines="0 0 0.59 1"
        calcMode="spline"
        dur="2s"
        fill="freeze"/>
      <animate
        attributeType="CSS"
        attributeName="opacity"
        values="1; 1; 0"
        dur="2s"
        fill="freeze"/>
      <line x1="68.95" y1="107.8" x2="131.86" y2="107.8" fill="none" stroke="#fff" stroke-linecap="round" stroke-miterlimit="10" stroke-width="2" />
    </g>
    <g>
      <animateTransform
        attributeName="transform"
        type="translate"
        values="205 15; -55 15"
        keyTimes="0; 1"
        keySplines="0 0 0.59 1"
        calcMode="spline"
        dur="2s"
        fill="freeze"/>
      <animate
        attributeType="CSS"
        attributeName="opacity"
        values="1; 1; 0"
        dur="2s"
        fill="freeze"/>
      <path d="M41.77,97.54H77.06a12.4,12.4,0,1,1,24.8,0h17.93" fill="none" stroke="#fff" stroke-linecap="round" stroke-miterlimit="10" stroke-width="2"/>
    </g>
    <g>
      <animateTransform
        attributeName="transform"
        type="translate"
        values="140 0; 150 0; -190 0"
        keyTimes="0; 0.25; 1"
        fill="freeze"
        dur="3s" />
      <animate
        attributeType="CSS"
        attributeName="opacity"
        values="0; 1; 1; 0"
        keyTimes="0; 0.25; 0.7; 1"
        fill="freeze"
        dur="3s"/>
      <line x1="258.96" y1="93.19" x2="298.74" y2="93.19" fill="none" stroke="#fff" stroke-linecap="round" stroke-miterlimit="10" stroke-width="2"/>
    </g>
    <g id="cloudLine2">
      <animateTransform
        attributeName="transform"
        type="translate"
        values="150 0; 180 0; -200 0"
        keyTimes="0; 0.25; 1"
        fill="freeze"
        dur="3s"
      />
      <animate
        attributeType="CSS"
        attributeName="opacity"
        values="0; 1; 1; 0"
        keyTimes="0; 0.25; 0.7; 1"
        fill="freeze"
        dur="3s"
      />
      <path d="M278.75,82.91H251.39a12.4,12.4,0,1,0-24.8,0H208.65" fill="none" stroke="#fff" stroke-linecap="round" stroke-miterlimit="10" stroke-width="2"/>
      <line x1="287.01" y1="82.91" x2="309.21" y2="82.91" fill="none" stroke="#fff" stroke-linecap="round" stroke-miterlimit="10" stroke-width="2"/>
    </g>
    <line x1="106.25" y1="179.49" x2="84.05" y2="179.49" fill="none" stroke="#fff" stroke-linecap="round" stroke-miterlimit="10" stroke-width="2">
      <animate dur="200ms" attributeName="x2" values="84.05; 81; 84.05" calcMode="spline" keySplines="0.72 -0.36 0.35 1.56; 0.72 -0.36 0.35 1.56" begin="150ms" repeatCount="indefinite"/>
    </line>
    <line x1="106.25" y1="201.23" x2="84.05" y2="201.23" fill="none" stroke="#fff" stroke-linecap="round" stroke-miterlimit="10" stroke-width="2">
      <animate dur="200ms" attributeName="x2" values="84.05; 81; 84.05" calcMode="spline" begin="100ms" keySplines="0.72 -0.36 0.35 1.56; 0.72 -0.36 0.35 1.56" repeatCount="indefinite"/>
    </line>
    <line x1="106.25" y1="190.98" x2="68.77" y2="190.98" fill="none" stroke="#fff" stroke-linecap="round" stroke-miterlimit="10" stroke-width="2">
      <animate dur="200ms" attributeName="x2" values="68.77; 72; 68.77" calcMode="spline" keySplines="0.72 -0.36 0.35 1.56; 0.72 -0.36 0.35 1.56" repeatCount="indefinite"/>
    </line>

    <path d="M 289.94 327.88 L 244.88 327.88 L 212.8 296.58 C 212.459 296.292 212.027 296.134 211.58 296.134 C 211.133 296.134 210.701 296.292 210.36 296.58 L 200.16 306.81 C 199.847 307.08 199.448 307.229 199.035 307.229 C 198.622 307.229 198.223 307.08 197.91 306.81 L 178.91 286.64 C 178.477 286.273 177.928 286.072 177.36 286.072 C 176.792 286.072 176.243 286.273 175.81 286.64 L 149.39 312.28 C 149.078 312.552 148.679 312.702 148.265 312.702 C 147.851 312.702 147.452 312.552 147.14 312.28 L 144.51 309.36 C 144.195 309.071 143.783 308.911 143.355 308.911 C 142.927 308.911 142.515 309.071 142.2 309.36 L 124.63 329 L 80.78 329" fill="none" stroke="#fff" stroke-linecap="round" stroke-miterlimit="10" stroke-width="2">
      <animate
        attributeName="d"
        values="M 289.94 327.88 L 244.88 327.88 L 212.8 296.58 C 212.459 296.292 212.027 296.134 211.58 296.134 C 211.133 296.134 210.701 296.292 210.36 296.58 L 200.16 306.81 C 199.847 307.08 199.448 307.229 199.035 307.229 C 198.622 307.229 198.223 307.08 197.91 306.81 L 178.91 286.64 C 178.477 286.273 177.928 286.072 177.36 286.072 C 176.792 286.072 176.243 286.273 175.81 286.64 L 149.39 312.28 C 149.078 312.552 148.679 312.702 148.265 312.702 C 147.851 312.702 147.452 312.552 147.14 312.28 L 144.51 309.36 C 144.195 309.071 143.783 308.911 143.355 308.911 C 142.927 308.911 142.515 309.071 142.2 309.36 L 124.63 329 L 80.78 329; M 289.94 327.88 L 244.88 327.88 L 216.5 312.5 C 216.5 312.5 212.027 310.133 211.58 310.133 C 211.175 310.133 209 311 209 311 L 203.5 313 C 203.5 313 202 313.5 199.035 314.229 C 196 313.5 194.5 312.5 194.5 312.5 L 183.5 306.5 C 183.067 306.133 178.999 304.136 177.36 304.072 C 175.5 304 171.433 305.633 171 306 L 161.5 313 C 161.5 313 158 316 155.265 316.702 C 153.5 316.5 152.5 316 152.5 316 L 150 315.5 C 150 315.5 148.5 315 147 315.5 C 145.5 316 144.786 316.702 144.786 316.702 L 124.5 327.88 L 80.78 328; M 289.94 327.88 L 244.88 327.88 L 217 327.88 C 215.667 327.88 214.333 327.88 213 327.88 C 211.833 327.88 210.667 327.88 209.5 327.88 L 202.5 327.88 C 201 327.88 199.5 327.88 198 327.88 C 196.5 327.88 195 327.88 193.5 327.88 L 183 327.88 C 181 327.88 179 327.88 177 327.88 C 174.333 327.88 171.667 327.88 169 327.88 L 161.5 327.88 C 159.167 327.88 156.833 327.88 154.5 327.88 C 153.667 327.88 152.833 327.88 152 327.88 L 149 327.88 C 148 327.88 147 327.88 146 327.88 C 145.167 327.88 144.333 327.88 143.5 327.88 L 124.5 327.88 L 80.78 328"
        dur="440ms" begin="2s" fill="freeze"
      />
    </path>
  </g>

  <g id="secondFrame">
  </g>
</svg>
